<svg xmlns="http://www.w3.org/2000/svg" viewBox="0 0 265 57.984" preserveAspectRatio="xMidYMid meet" x="0px" y="0px" xmlns:xml="http://www.w3.org/XML/1998/namespace" xml:space="preserve" enable-background="new 0 0 265 57.984" xmlns:xlink="http://www.w3.org/1999/xlink" version="1.1">
              <path fill="#ff5a00" d="M 34.132 22.419 H 20.451 c 0.322 -1.935 0.871 -3.561 1.65 -4.879 c 0.777 -1.317 1.716 -2.379 2.817 -3.185 a 10.847 10.847 0 0 1 3.541 -1.734 a 12.341 12.341 0 0 1 3.823 -0.444 c 1.288 0.054 2.521 0.282 3.702 0.685 c 1.179 0.403 2.24 0.941 3.179 1.613 c 0.938 0.673 1.69 1.452 2.253 2.339 c 0.563 0.887 0.845 1.842 0.845 2.863 h 11.106 c -0.054 -1.774 -0.281 -3.414 -0.684 -4.919 a 17.04 17.04 0 0 0 -4.426 -7.701 a 20.46 20.46 0 0 0 -3.46 -2.782 a 23.663 23.663 0 0 0 -4.024 -2.056 A 29.367 29.367 0 0 0 36.266 0.848 a 28.963 28.963 0 0 0 -4.829 -0.645 a 34.54 34.54 0 0 0 -4.989 0.121 c -1.69 0.161 -3.354 0.457 -4.99 0.887 a 37.269 37.269 0 0 0 -4.789 1.613 a 27.868 27.868 0 0 0 -8.531 5.564 a 26.593 26.593 0 0 0 -3.38 3.952 a 24.129 24.129 0 0 0 -2.575 4.718 c -0.698 1.694 -1.248 3.536 -1.65 5.524 c -0.403 1.989 -0.576 4.113 -0.523 6.371 c 0 2.366 0.201 4.57 0.603 6.613 c 0.403 2.044 0.966 3.939 1.69 5.685 a 24.715 24.715 0 0 0 2.656 4.839 a 27.763 27.763 0 0 0 3.461 4.032 a 25.494 25.494 0 0 0 4.064 3.186 a 28.273 28.273 0 0 0 4.587 2.339 a 32.243 32.243 0 0 0 9.939 2.258 c 1.69 0.107 3.366 0.107 5.03 0 a 29.036 29.036 0 0 0 4.869 -0.726 a 26.967 26.967 0 0 0 4.587 -1.532 a 23.4 23.4 0 0 0 4.105 -2.299 a 21.85 21.85 0 0 0 3.46 -3.024 a 18.036 18.036 0 0 0 2.656 -3.709 a 19.117 19.117 0 0 0 1.69 -4.396 c 0.402 -1.585 0.603 -3.292 0.603 -5.121 H 42.26 c -0.269 1.398 -0.765 2.648 -1.489 3.75 a 10.499 10.499 0 0 1 -2.575 2.742 a 10.464 10.464 0 0 1 -3.3 1.613 c -1.207 0.35 -2.428 0.511 -3.662 0.484 A 11.969 11.969 0 0 1 27.532 45 a 9.89 9.89 0 0 1 -3.38 -2.016 c -1.02 -0.914 -1.905 -2.057 -2.656 -3.428 c -0.752 -1.371 -1.288 -2.97 -1.61 -4.798 H 34.05 l 0.082 -12.339 Z m 37.336 35.485 l -0.403 -11.452 c 1.984 0.27 3.956 0.363 5.915 0.282 a 29.95 29.95 0 0 0 5.674 -0.766 a 30.808 30.808 0 0 0 5.311 -1.774 a 28.703 28.703 0 0 0 4.748 -2.621 a 25.366 25.366 0 0 0 3.984 -3.387 a 22.374 22.374 0 0 0 3.098 -4.073 a 19.388 19.388 0 0 0 1.972 -4.597 c 0.455 -1.613 0.684 -3.307 0.684 -5.081 c 0 -2.204 -0.269 -4.287 -0.805 -6.25 a 20.756 20.756 0 0 0 -2.414 -5.524 a 22.078 22.078 0 0 0 -3.984 -4.718 c -1.583 -1.424 -3.38 -2.661 -5.392 -3.71 c -2.012 -1.048 -4.239 -1.908 -6.68 -2.581 C 80.734 0.98 78.092 0.537 75.249 0.321 c -2.844 -0.214 -5.875 -0.174 -9.094 0.121 c -3.219 0.296 -6.573 0.875 -10.06 1.734 v 55.726 h 15.373 v 0.002 Z m 6.961 -46.251 c 2.226 0.457 4.131 1.183 5.714 2.177 c 1.582 0.996 2.817 2.258 3.702 3.79 c 0.885 1.532 1.328 3.347 1.328 5.443 c 0 2.42 -0.39 4.342 -1.167 5.766 c -0.778 1.425 -1.931 2.528 -3.461 3.306 c -1.529 0.78 -3.42 1.278 -5.674 1.492 c -2.253 0.216 -4.856 0.27 -7.806 0.161 V 11.129 c 2.683 -0.107 5.137 0.068 7.364 0.524 Z m 26.954 -3.589 a 435.64 435.64 0 0 0 -0.644 7.016 a 113.438 113.438 0 0 0 -0.362 6.613 a 261.945 261.945 0 0 0 0 12.985 a 131 131 0 0 0 0.362 6.935 c 0.188 2.419 0.403 4.973 0.644 7.661 c 0.242 2.689 0.55 5.565 0.926 8.629 h 15.935 a 185.31 185.31 0 0 1 -0.523 -6.008 c -0.135 -1.908 -0.215 -3.79 -0.242 -5.645 a 66.304 66.304 0 0 1 0.161 -5.645 c 0.133 -1.908 0.308 -3.884 0.523 -5.927 h 15.13 c 0.375 1.99 0.63 3.939 0.765 5.846 c 0.133 1.909 0.188 3.804 0.161 5.686 a 83.443 83.443 0 0 1 -0.282 5.725 a 126.547 126.547 0 0 1 -0.644 5.968 h 16.257 a 704.184 704.184 0 0 0 1.489 -16.492 c 0.188 -2.392 0.308 -4.664 0.362 -6.815 c 0.053 -2.15 0.08 -4.274 0.08 -6.371 c 0 -2.097 -0.054 -4.194 -0.161 -6.291 c -0.108 -2.097 -0.255 -4.26 -0.442 -6.492 c -0.189 -2.23 -0.43 -4.583 -0.725 -7.056 a 848.331 848.331 0 0 0 -1.006 -8.065 h -15.854 a 58.32 58.32 0 0 1 0.684 5.565 c 0.133 1.828 0.201 3.643 0.201 5.444 c 0 1.802 -0.068 3.616 -0.201 5.443 a 62.041 62.041 0 0 1 -0.684 5.645 h -15.13 a 93.174 93.174 0 0 1 -0.604 -5.726 a 73.856 73.856 0 0 1 -0.201 -5.444 c 0 -1.8 0.08 -3.601 0.241 -5.403 c 0.161 -1.801 0.348 -3.642 0.563 -5.524 h -15.854 a 216.283 216.283 0 0 0 -0.925 7.743 Z m 85.02 14.355 h -13.681 c 0.322 -1.935 0.871 -3.561 1.65 -4.879 c 0.777 -1.317 1.716 -2.379 2.816 -3.185 a 10.847 10.847 0 0 1 3.541 -1.734 a 12.341 12.341 0 0 1 3.823 -0.444 c 1.288 0.054 2.521 0.282 3.702 0.685 c 1.179 0.403 2.24 0.941 3.178 1.613 c 0.938 0.673 1.69 1.452 2.253 2.339 c 0.563 0.887 0.845 1.842 0.845 2.863 h 11.106 c -0.054 -1.774 -0.282 -3.414 -0.684 -4.919 a 17.078 17.078 0 0 0 -1.73 -4.193 a 17.216 17.216 0 0 0 -2.696 -3.508 a 20.421 20.421 0 0 0 -3.46 -2.782 a 23.663 23.663 0 0 0 -4.024 -2.056 a 29.367 29.367 0 0 0 -4.507 -1.371 a 28.95 28.95 0 0 0 -4.829 -0.645 c -1.637 -0.081 -3.3 -0.04 -4.989 0.121 c -1.69 0.161 -3.354 0.457 -4.989 0.887 a 37.269 37.269 0 0 0 -4.789 1.613 a 27.868 27.868 0 0 0 -8.531 5.564 a 26.593 26.593 0 0 0 -3.38 3.952 a 24.181 24.181 0 0 0 -2.575 4.718 c -0.698 1.694 -1.247 3.536 -1.65 5.524 c -0.402 1.989 -0.576 4.113 -0.523 6.371 c 0 2.366 0.201 4.57 0.604 6.613 c 0.402 2.044 0.965 3.939 1.69 5.685 a 24.715 24.715 0 0 0 2.656 4.839 a 27.763 27.763 0 0 0 3.461 4.032 a 25.539 25.539 0 0 0 4.064 3.186 a 28.273 28.273 0 0 0 4.587 2.339 a 32.243 32.243 0 0 0 9.939 2.258 c 1.69 0.107 3.366 0.107 5.03 0 a 29.02 29.02 0 0 0 4.869 -0.726 a 27.007 27.007 0 0 0 4.588 -1.532 a 23.355 23.355 0 0 0 4.104 -2.299 a 21.857 21.857 0 0 0 3.461 -3.024 a 18.036 18.036 0 0 0 2.656 -3.709 a 19.117 19.117 0 0 0 1.69 -4.396 c 0.403 -1.585 0.604 -3.292 0.604 -5.121 h -11.75 c -0.269 1.398 -0.764 2.648 -1.489 3.75 a 10.499 10.499 0 0 1 -2.575 2.742 a 10.464 10.464 0 0 1 -3.3 1.613 c -1.207 0.35 -2.428 0.511 -3.662 0.484 a 11.903 11.903 0 0 1 -3.702 -0.686 a 9.89 9.89 0 0 1 -3.38 -2.016 c -1.02 -0.914 -1.905 -2.057 -2.656 -3.428 c -0.752 -1.371 -1.288 -2.97 -1.61 -4.798 h 14.164 l 0.08 -12.34 Z m 72.907 -2.983 c -0.054 -1.72 -0.282 -3.333 -0.684 -4.839 a 18.067 18.067 0 0 0 -1.69 -4.194 a 16.845 16.845 0 0 0 -2.616 -3.508 a 19.847 19.847 0 0 0 -3.38 -2.782 a 24.566 24.566 0 0 0 -3.984 -2.097 A 24.932 24.932 0 0 0 246.53 0.645 a 30.173 30.173 0 0 0 -4.748 -0.605 a 33.408 33.408 0 0 0 -9.778 0.968 a 29.46 29.46 0 0 0 -4.708 1.613 a 28.026 28.026 0 0 0 -4.386 2.419 a 29.602 29.602 0 0 0 -3.943 3.186 a 25.898 25.898 0 0 0 -3.34 3.911 a 22.494 22.494 0 0 0 -2.494 4.718 a 33.747 33.747 0 0 0 -1.61 5.565 c -0.403 1.99 -0.604 4.113 -0.604 6.371 c 0 2.312 0.215 4.503 0.644 6.573 c 0.43 2.07 1.006 3.979 1.73 5.725 a 26.012 26.012 0 0 0 2.616 4.839 a 24.84 24.84 0 0 0 3.461 4.032 a 27.126 27.126 0 0 0 4.105 3.186 a 28.93 28.93 0 0 0 4.547 2.339 a 30.56 30.56 0 0 0 4.909 1.532 c 1.69 0.377 3.38 0.619 5.07 0.726 c 1.69 0.108 3.366 0.108 5.03 0 a 26.635 26.635 0 0 0 4.869 -0.766 a 31.212 31.212 0 0 0 4.547 -1.532 a 23.339 23.339 0 0 0 4.104 -2.258 a 19.703 19.703 0 0 0 3.461 -3.024 a 19.741 19.741 0 0 0 2.656 -3.75 a 18.85 18.85 0 0 0 1.731 -4.435 c 0.402 -1.585 0.604 -3.267 0.604 -5.04 l -11.75 -0.081 a 6.523 6.523 0 0 1 -1.569 3.266 a 10.046 10.046 0 0 1 -2.978 2.299 c -1.154 0.592 -2.442 1.008 -3.863 1.25 a 13.356 13.356 0 0 1 -4.265 0.04 c -1.422 -0.214 -2.816 -0.672 -4.185 -1.371 c -1.368 -0.698 -2.575 -1.666 -3.621 -2.903 c -1.046 -1.236 -1.891 -2.769 -2.535 -4.597 c -0.644 -1.827 -0.966 -4.005 -0.966 -6.533 c 0 -2.526 0.295 -4.718 0.885 -6.572 c 0.59 -1.855 1.368 -3.44 2.334 -4.758 c 0.966 -1.317 2.079 -2.351 3.34 -3.105 c 1.26 -0.752 2.561 -1.263 3.903 -1.532 a 11.294 11.294 0 0 1 4.024 -0.081 c 1.34 0.216 2.588 0.632 3.742 1.25 a 10.048 10.048 0 0 1 2.978 2.419 c 0.831 0.995 1.408 2.165 1.73 3.508 h 11.103 v -0.001 Z" />
            </svg>